<svg version="1.2" xmlns="http://www.w3.org/2000/svg" viewBox="0 0 360 351" width="360" height="351"><style></style><path  d="m129.3 257.3c-0.7 0-0.7-1.1 0-1.1 2.4 0 4.7 0 7 0.7 0.7 0.2 0.4 1.3-0.3 1.1-2.2-0.7-4.4-0.7-6.7-0.7z"/><path  d="m128.9 260.1c2.7 0.1 5.3 0.7 7.9 0 0.6-0.1 0.9 0.9 0.2 1.1-2.7 0.6-5.4 0.1-8.1 0-0.7 0-0.7-1.1 0-1.1z"/><path  d="m130.2 225.5c-0.6-0.2-0.3-1.2 0.3-1.1 3.2 0.7 6.3 1.4 9.5 0.7 0.7 0 1 1 0.3 1.1-3.4 0.7-6.7 0-10.1-0.7z"/><path  d="m131.8 218.7c3.1-0.3 6 0.7 8.6 2.2 0.6 0.3 0.1 1.3-0.6 0.9-2.4-1.3-5.1-2.3-8-2-0.7 0-0.7-1.1 0-1.1z"/><path  d="m183.8 289.8c0.7-0.1 0.7 1 0 1h-5.1c-0.6 0-0.6-1.1 0-1.1z"/><path  d="m184.9 287.9c-3.1 0-6.3-0.3-9.4-0.3-0.7 0-0.7-1.1 0-1.1 3.1 0 6.3 0.3 9.4 0.4 0.7 0 0.7 1.1 0 1.1z"/><path  d="m176.9 243.2c4 0.4 8 1 12 1.5 0.6 0 0.6 1.1 0 1-4-0.4-8-1-12-1.4-0.6-0.1-0.7-1.2 0-1.1z"/><path  d="m178.3 238.9c4.4-1 8.7 0.3 12.8 1.8 0.7 0.2 0.4 1.3-0.3 1-3.9-1.4-8-2.7-12.3-1.8-0.7 0.2-1-0.9-0.3-1z"/><path  d="m175.1 248.3c5.6 0.3 10.8 0.7 16.1-1.1 0.7-0.3 1 0.8 0.3 1-5.4 1.9-10.7 1.5-16.4 1.1-0.6 0-0.7-1.1 0-1z"/><path  d="m194.1 143.1c0-9.7-5.6-19.4-2.5-29 0.2-0.7 1.2-0.4 1 0.3-3 9.4 2.6 19.1 2.6 28.7 0 0.7-1.1 0.7-1.1 0z"/><path  d="m227.1 238.9c-0.7 0-0.7-1.1 0-1.1 2.8 0 5.7 0 8.5-0.7 0.7-0.2 0.9 0.8 0.3 1-2.9 0.8-5.9 0.8-8.8 0.8z"/><path  d="m226.1 241.4c3.8 0.7 7.7 0.6 11.3-0.7 0.7-0.3 0.9 0.8 0.3 1-3.9 1.4-7.9 1.5-11.9 0.7-0.6-0.1-0.3-1.1 0.3-1z"/><path  d="m224.3 236c5-3.2 11.1-3.3 16.7-1.4 0.6 0.2 0.3 1.2-0.3 1-5.4-1.7-11.1-1.7-15.9 1.4-0.6 0.4-1.1-0.6-0.5-1z"/><path  d="m241 276.1c0.7-0.2 1 0.9 0.3 1-2 0.4-4 0.7-6.1 0.3-0.6-0.1-0.4-1.1 0.3-1 1.9 0.3 3.7 0 5.5-0.3z"/><path  d="m244.2 273.8c-3.9 0.7-8 0.8-11.9 1.5-0.7 0.1-1-0.9-0.3-1 3.9-0.7 8-0.8 11.9-1.5 0.7-0.1 1 0.9 0.3 1z"/><path  d="m357.7 174c0 97.6-79.1 176.7-176.7 176.7-97.6 0-176.7-79.1-176.7-176.7 0-82.5 56.6-151.8 133-171.2-0.8 4.4-1.8 8.8-3.6 13.2-2.6 6.5-5.7 13-7.7 19.9-4 14.2-6.9 28.7-10.5 43.1-4.6 17.9-3.6 35.8-5.7 54-1.5 13.1-11.7 41.3 5.6 47.9 4 1 8.9 1.4 10.5 5.1 1.7-7.2 2.3-14.5 3.6-21.8 1.5-8.5 3.3-16.8 3.2-25.4 0-0.7 1.1-0.7 1.1 0 0 8.8-1.9 17-3.2 25.7-1.3 8-2.1 16-4.2 23.8v0.2c0.1 3.9-2.2 8-3.1 11.6-1.6 6.6-2.2 13.5-2.9 20.2-2.4 22.5-8.4 45.6-4.1 68.2 0.3 2.1 1.1 4.1 2 6 3 9.5 14.7 6.6 17.5 4 6.3-5 6-13.1 6.7-20.7 1.4-13.2 3.1-26.1 5.9-39.1 2.9-13.1 5.2-26 6.6-39.4 0.5-4.1 0.9-8.1 2-11.9-0.1-0.2-0.1-0.4 0-0.6 2.4-5.5 2.6-11.7 4.3-17.5 0.1-0.4 0.6-0.6 0.8-0.3 4.8 5.2 5.1 13.6 6 20.3 0.1 0.3-0.2 0.4-0.4 0.4 0.2 2.3 0.2 4.6 0 7-0.9 12.6-1.4 25.2-1.6 38-0.3 14.8-0.6 29.6-1.2 44.4-0.6 12.5-1.9 27.4 2.3 39.4 1.1 3 2.9 7.1 5.6 9.8 6.7 9.7 17.2 0.5 18.6-2.9q2.1-3.2 2.3-7.9c0.2-4.3-0.1-8.6-0.5-12.9-1.1-10.8 0.1-20.9 2.3-31.4 3.2-15.2 6.4-31 7.7-46.4 1-13.2-1.8-26-1.1-39.1 0-0.1 0.1-0.1 0.1-0.2-1.5-5.5-0.2-11.4 2-16.5 0.3-0.7 1.3-0.1 1 0.5-2.2 4.9-3.4 10.7-1.9 16 6.2 3.5 8.5 11 9.8 17.7 2.5 13.8 2.7 28 5.2 41.8 2.4 13.7 5.4 27.2 9 40.6 2 7.7 3 15.8 5.4 23.5 0 0.1 3.3 15.2 12.8 11.4 4.4-1.8 8.8-5 9.8-10.1 3.2-16.9-0.4-35.5-3.8-52.2-3.2-15.8-7.3-31.8-8.1-48.1-0.8-15.6-1.3-31.8-6-46.9-1.4-4.6-4.3-10.8-2.4-15.7 2.5-6.5 6.5-12.4 8.1-19.3 3.6-16.2 1.9-32.7-0.8-49-2.7-16.7-5.6-33.4-9.1-49.9-1.9-8.7-3-18.8-5.9-27.8 75.2 20.3 130.4 88.9 130.4 170.5z"/></svg>